<?xml version="1.0" encoding="iso-8859-1"?>
<!-- Generator: Adobe Illustrator 20.0.0, SVG Export Plug-In . SVG Version: 6.00 Build 0)  -->
<svg version="1.1" id="Layer_1_1_" xmlns="http://www.w3.org/2000/svg" xmlns:xlink="http://www.w3.org/1999/xlink" x="0px" y="0px"
	 viewBox="0 0 64 64" style="enable-background:new 0 0 64 64;" xml:space="preserve">
<path d="M59.122,38.172l-1.011-0.404c-1.028-0.412-1.946-1.017-2.729-1.8C53.468,34.054,50.924,33,48.218,33h-1.833l10.343-10.343
	c1.512-1.511,2.344-3.52,2.344-5.657s-0.832-4.146-2.344-5.657C55.217,9.832,53.208,9,51.071,9s-4.146,0.832-5.657,2.343L44,12.757
	l-1.414-1.414C41.074,9.832,39.065,9,36.929,9s-4.146,0.832-5.656,2.343c-1.512,1.511-2.344,3.52-2.344,5.657
	s0.832,4.146,2.344,5.657L41.615,33h-28.08l-5.703-8.555C7.646,24.167,7.334,24,7,24H3c-0.553,0-1,0.448-1,1v15
	c0,0.437,0.283,0.822,0.699,0.954l19,6C21.796,46.984,21.897,47,22,47h3v14c0,0.552,0.447,1,1,1h7c0.431,0,0.812-0.275,0.948-0.684
	L38.721,47h18.701C59.946,47,62,44.946,62,42.422C62,40.539,60.87,38.871,59.122,38.172z M30.929,17
	c0-1.603,0.624-3.109,1.758-4.243C33.819,11.624,35.326,11,36.929,11s3.109,0.624,4.243,1.757l2.121,2.121
	c0.391,0.391,1.023,0.391,1.414,0l2.121-2.121C47.962,11.624,49.469,11,51.071,11s3.109,0.624,4.242,1.757
	c1.134,1.133,1.758,2.64,1.758,4.243s-0.624,3.109-1.758,4.243L44,32.557L32.687,21.243C31.553,20.109,30.929,18.603,30.929,17z
	 M6.465,26l4.667,7H4v-7H6.465z M57.422,45H38c-0.431,0-0.812,0.275-0.948,0.684L32.279,60H27V46c0-0.552-0.447-1-1-1h-3.846
	L4,39.267V35h9h35.218c1.981,0,3.849,0.711,5.329,2H51v2h5v-0.06c0.439,0.258,0.891,0.494,1.369,0.685l1.011,0.404
	c0.984,0.393,1.62,1.333,1.62,2.393C60,43.844,58.844,45,57.422,45z"/>
<rect x="46" y="37" width="2" height="2"/>
<rect x="42" y="37" width="2" height="2"/>
<rect x="38" y="37" width="2" height="2"/>
<rect x="34" y="37" width="2" height="2"/>
<rect x="30" y="37" width="2" height="2"/>
<rect x="26" y="37" width="2" height="2"/>
<rect x="22" y="37" width="2" height="2"/>
<rect x="18" y="37" width="2" height="2"/>
<rect x="14" y="37" width="2" height="2"/>
<path d="M17.763,15.219c-1.194-0.53-2.429-1.079-3.737-1.458c-1.822-0.529-4.485-0.888-6.82,0.403l0.967,1.75
	c1.827-1.008,4.103-0.578,5.297-0.232c1.178,0.341,2.297,0.838,3.482,1.365c0.73,0.325,1.462,0.649,2.207,0.937
	c0.889,0.343,1.933,0.684,3.043,0.684c0.117,0,0.235-0.004,0.354-0.012c1.483-0.099,2.762-0.885,3.335-2.053l-1.795-0.882
	c-0.252,0.512-0.924,0.889-1.674,0.939c-0.851,0.056-1.765-0.242-2.542-0.542C19.164,15.842,18.464,15.53,17.763,15.219z"/>
<path d="M15.699,24.008c-1.86-0.061-2.76,0.653-3.183,1.263l1.645,1.14c0.194-0.281,0.743-0.437,1.474-0.404
	c2.041,0.065,3.978,0.848,6.026,1.677c1.816,0.735,3.695,1.495,5.715,1.752c0.287,0.037,0.612,0.069,0.96,0.069
	c0.455,0,0.947-0.055,1.437-0.224c1.008-0.348,1.761-1.144,1.964-2.076l-1.953-0.427c-0.054,0.244-0.326,0.496-0.664,0.612
	c-0.368,0.126-0.826,0.146-1.489,0.062c-1.764-0.225-3.441-0.903-5.219-1.623C20.29,24.972,18.096,24.084,15.699,24.008z"/>
<rect x="45" y="2" width="17" height="2"/>
<rect x="41" y="2" width="2" height="2"/>
<rect x="37" y="2" width="2" height="2"/>
<rect x="33" y="2" width="2" height="2"/>
<rect x="29" y="6" width="2" height="2"/>
<rect x="25" y="6" width="2" height="2"/>
<rect x="21" y="6" width="2" height="2"/>
<rect x="42.55" y="23.5" transform="matrix(0.7071 -0.7071 0.7071 0.7071 -3.4117 40.7635)" width="9.899" height="2"/>
<rect x="51.586" y="18" transform="matrix(0.7071 -0.7071 0.7071 0.7071 2.0883 43.0416)" width="2.828" height="2"/>
</svg>
